<svg xmlns="http://www.w3.org/2000/svg" viewBox="0 0 72 72" width="72" height="72" fill="none">
  <rect x="0" y="0" width="72" height="72" rx="9" fill="none" stroke="white" stroke-width="1.5" stroke-opacity="0.2"/>
  <rect x="3" y="3" width="31" height="28" rx="5" fill="#A78BFA" fill-opacity="0.22" stroke="#A78BFA" stroke-width="1"/>
  <polyline points="7,20 12,14 17,18 22,11 27,15 31,10" fill="none" stroke="#A78BFA" stroke-width="1.4" stroke-linecap="round" stroke-linejoin="round"/>
  <rect x="38" y="3" width="31" height="28" rx="5" fill="white" fill-opacity="0.07" stroke="white" stroke-width="1" stroke-opacity="0.25"/>
  <rect x="42" y="10" width="16" height="3" rx="1.5" fill="white" fill-opacity="0.55"/>
  <rect x="42" y="15" width="10" height="2" rx="1" fill="white" fill-opacity="0.3"/>
  <rect x="42" y="20" width="13" height="2" rx="1" fill="white" fill-opacity="0.2"/>
  <rect x="3" y="35" width="31" height="28" rx="5" fill="white" fill-opacity="0.07" stroke="white" stroke-width="1" stroke-opacity="0.2"/>
  <circle cx="14" cy="49" r="4" fill="#A78BFA" fill-opacity="0.7"/>
  <rect x="22" y="46" width="9" height="2.5" rx="1" fill="white" fill-opacity="0.4"/>
  <rect x="22" y="50" width="6" height="2" rx="1" fill="white" fill-opacity="0.2"/>
  <rect x="38" y="35" width="31" height="28" rx="5" fill="#A78BFA" fill-opacity="0.15" stroke="#A78BFA" stroke-width="1" stroke-opacity="0.6"/>
  <rect x="42" y="52" width="4" height="9"  rx="1" fill="#A78BFA" fill-opacity="0.5"/>
  <rect x="48" y="48" width="4" height="13" rx="1" fill="#A78BFA" fill-opacity="0.75"/>
  <rect x="54" y="45" width="4" height="16" rx="1" fill="#A78BFA"/>
  <rect x="60" y="49" width="4" height="12" rx="1" fill="#A78BFA" fill-opacity="0.65"/>
</svg>
