<svg xmlns="http://www.w3.org/2000/svg" viewBox="0 0 200 88" fill="none" aria-hidden="true">
  <defs>
    <linearGradient id="box-a" x1="0%" y1="0%" x2="100%" y2="100%">
      <stop offset="0%" stop-color="#fb923c"/>
      <stop offset="100%" stop-color="#ea580c"/>
    </linearGradient>
    <linearGradient id="box-b" x1="0%" y1="0%" x2="0%" y2="100%">
      <stop offset="0%" stop-color="#2dd4bf"/>
      <stop offset="100%" stop-color="#0d9488"/>
    </linearGradient>
    <linearGradient id="box-c" x1="0%" y1="0%" x2="100%" y2="0%">
      <stop offset="0%" stop-color="#a78bfa"/>
      <stop offset="100%" stop-color="#7c3aed"/>
    </linearGradient>
    <linearGradient id="box-d" x1="0%" y1="0%" x2="100%" y2="100%">
      <stop offset="0%" stop-color="#fcd34d"/>
      <stop offset="100%" stop-color="#f59e0b"/>
    </linearGradient>
    <linearGradient id="box-e" x1="0%" y1="0%" x2="100%" y2="100%">
      <stop offset="0%" stop-color="#f472b6"/>
      <stop offset="100%" stop-color="#db2777"/>
    </linearGradient>
    <filter id="inv-soft" x="-20%" y="-20%" width="140%" height="140%">
      <feDropShadow dx="0" dy="2" stdDeviation="2" flood-opacity="0.12"/>
    </filter>
  </defs>
  <ellipse cx="100" cy="78" rx="88" ry="6" fill="#0f172a" opacity="0.06"/>
  <g filter="url(#inv-soft)">
    <!-- Left cluster -->
    <rect x="12" y="50" width="38" height="24" rx="3" fill="url(#box-a)"/>
    <rect x="16" y="54" width="30" height="4" rx="1" fill="#fff" opacity="0.35"/>
    <rect x="22" y="32" width="36" height="22" rx="3" fill="url(#box-c)"/>
    <rect x="26" y="36" width="12" height="2" rx="0.5" fill="#fff" opacity="0.45"/>
    <!-- Centre stack -->
    <rect x="78" y="46" width="44" height="28" rx="3" fill="url(#box-b)"/>
    <rect x="84" y="50" width="32" height="3" rx="1" fill="#fff" opacity="0.3"/>
    <rect x="88" y="22" width="32" height="28" rx="2.5" fill="url(#box-d)"/>
    <path d="M88 30h32" stroke="#fff" stroke-opacity="0.4" stroke-width="1.5" stroke-linecap="round"/>
    <rect x="96" y="26" width="16" height="10" rx="1.5" fill="#fff" opacity="0.9"/>
    <path d="M99 32h10M99 34h6" stroke="#7c3aed" stroke-width="1.2" stroke-linecap="round" opacity="0.7"/>
    <!-- Right cluster -->
    <rect x="138" y="52" width="34" height="22" rx="3" fill="url(#box-e)"/>
    <rect x="142" y="56" width="26" height="3" rx="1" fill="#fff" opacity="0.35"/>
    <rect x="148" y="36" width="40" height="18" rx="3" fill="url(#box-a)" opacity="0.85"/>
    <rect x="154" y="40" width="14" height="2" rx="0.5" fill="#fff" opacity="0.4"/>
  </g>
</svg>
